<svg width="23" height="24" viewBox="0 0 23 24" fill="none" xmlns="http://www.w3.org/2000/svg">
<path fill-rule="evenodd" clip-rule="evenodd" d="M15.5661 6.96535C15.7884 6.97602 16 7.02935 16.2011 7.13602C16.8783 7.48802 17.2275 8.26668 17.0159 9.00268C16.9524 9.23735 16.8254 9.45068 16.6667 9.64268C14.8571 11.552 12.9947 13.4294 11.1005 15.2534C10.9735 15.3707 10.8254 15.4667 10.6772 15.5307C10.2646 15.712 9.79894 15.712 9.39683 15.5307C9.2381 15.456 9.10053 15.36 8.97355 15.2534C7.86243 14.176 6.77249 13.088 5.71429 11.968C5.55556 11.7867 5.42857 11.5627 5.36508 11.328C5.29101 11.1254 5.26984 10.9334 5.29101 10.7307C5.32275 10.3574 5.49206 10.016 5.74603 9.74935C6.15873 9.34402 6.75132 9.18402 7.30159 9.34402C7.56614 9.41868 7.78836 9.56802 7.98942 9.74935L10.0317 11.808C11.4921 10.336 12.9312 8.82135 14.4233 7.38135L14.5397 7.28535C14.7831 7.11468 15.0476 7.00802 15.3545 6.96535C15.4286 6.96535 15.4921 6.95468 15.5661 6.96535ZM11.1958 1.41834e-05C14.9735 1.41834e-05 19.1217 0.544014 20.6243 1.00268C21.5661 1.37601 22.1905 2.30402 22.1905 3.33868C22.2222 5.68535 22.2222 10.048 22.2222 13.6534C22.2222 18.8694 14.6984 23.9574 11.1534 24H11.1111C7.57672 24 0 18.8907 0 13.6534C0 10.048 0 5.68535 0.031746 3.32802C0.031746 2.30401 0.656085 1.37601 1.59788 0.992015C3.11111 0.544014 7.31217 -0.0106525 11.1111 1.41834e-05H11.1958Z" fill="#5D636A"/>
</svg>
