<svg width="26" height="26" viewBox="0 0 26 26" fill="none" xmlns="http://www.w3.org/2000/svg">
<path fill-rule="evenodd" clip-rule="evenodd" d="M13 19.5H9.75C8.85083 19.5 8.125 18.7742 8.125 17.875C8.125 16.9758 8.85083 16.25 9.75 16.25V11.7758C9.035 11.9925 8.26583 11.7 7.88667 11.0608C7.5075 10.4217 7.59417 9.60917 8.125 9.07833L10.2267 6.97667C10.4108 6.7925 10.6383 6.65167 10.8875 6.57583H10.8983C11.0392 6.52167 11.2017 6.5 11.3642 6.5H11.375H11.4617H11.4833C11.5375 6.51083 11.5917 6.51083 11.6458 6.52167L11.6783 6.5325C12.0033 6.58667 12.2958 6.73833 12.5233 6.97667C12.7617 7.215 12.9133 7.51833 12.9675 7.82167V7.85417C12.9783 7.90833 12.9892 7.9625 12.9892 8.01667V8.07083V16.25C13.8883 16.25 14.6142 16.9758 14.6142 17.875C14.6142 18.7742 13.8992 19.5 13 19.5ZM11.375 2.8275C16.0767 2.8275 19.9008 7.38833 19.9008 13C19.9008 18.6117 16.0767 23.1725 11.375 23.1725C6.6625 23.1725 2.84917 18.6117 2.84917 13C2.84917 7.38833 6.6625 2.8275 11.375 2.8275ZM14.625 26H11.375C5.09167 26 0 20.1717 0 13C0 5.82833 5.09167 0 11.375 0H14.625C20.9083 0 26 5.82833 26 13C26 20.1717 20.9083 26 14.625 26Z" fill="#5D636A"/>
</svg>
