<svg width="26" height="22" viewBox="0 0 26 22" fill="none" xmlns="http://www.w3.org/2000/svg">
<path fill-rule="evenodd" clip-rule="evenodd" d="M10.5298 6.28571C11.429 6.28571 12.1548 6.98762 12.1548 7.85714C12.1548 8.72667 11.4181 9.42857 10.5298 9.42857C9.63063 9.42857 8.9048 8.72667 8.9048 7.85714C8.9048 6.98762 9.63063 6.28571 10.5298 6.28571ZM14.6248 18.8571H15.524C15.7081 18.8571 15.8815 18.7838 16.0115 18.6686C16.1415 18.5429 16.2173 18.3752 16.2173 18.1971V9.42857H16.5206C16.694 9.57524 16.9431 9.59619 17.1381 9.47048C17.3331 9.35524 17.4198 9.12476 17.3548 8.91524C17.2898 8.70572 17.0948 8.55905 16.8565 8.55905L11.0065 3.53048C10.7465 3.3 10.3456 3.3 10.0856 3.53048L4.26813 8.55905C4.10563 8.69524 4.05146 8.91524 4.1273 9.10381C4.20313 9.30286 4.39813 9.42857 4.60396 9.42857H4.8748V18.1971C4.8748 18.5638 5.17813 18.8571 5.5573 18.8571H6.4998V14.1429C6.4998 13.2733 7.22563 12.5714 8.1248 12.5714C9.02396 12.5714 9.7498 13.2733 9.7498 14.1429V18.8571H11.3748V14.1429C11.3748 13.2733 12.1006 12.5714 12.9998 12.5714C13.899 12.5714 14.6248 13.2733 14.6248 14.1429V18.8571ZM23.6706 22H2.4048C1.6573 22 1.0073 21.5076 0.833964 20.8162C0.638964 20.1143 0.974798 19.3914 1.6248 19.0457V11C0.953131 11 0.346464 10.6019 0.108131 9.98381C-0.130202 9.36571 0.0431309 8.68476 0.541464 8.25524L9.3598 0.481905C9.66313 0.167619 10.0856 0 10.5298 0H15.4806C15.9248 0 16.3473 0.167619 16.6506 0.481905L25.469 8.25524C25.9781 8.68476 26.1515 9.37619 25.9023 9.99429C25.6531 10.6124 25.0573 11.0105 24.3856 11.0105V19.0248C25.0681 19.339 25.4256 20.0724 25.2631 20.7848C25.079 21.4971 24.429 22 23.6706 22Z" fill="#5D636A"/>
</svg>
