<svg width="32" height="32" viewBox="0 0 32 32" fill="none" xmlns="http://www.w3.org/2000/svg">
<path fill-rule="evenodd" clip-rule="evenodd" d="M22.9638 12.7086C23.3143 12.739 23.6648 12.8152 23.9695 12.9981C24.9295 13.5467 25.3714 14.6743 25.021 15.7257C24.9143 16.0305 24.7467 16.3048 24.5486 16.5333C21.9429 19.261 19.261 21.9429 16.5333 24.5486C15.6648 25.341 14.3238 25.341 13.4552 24.5486C11.8552 23.0248 10.2857 21.4552 8.7619 19.8552C8.50286 19.5657 8.32 19.2152 8.22857 18.8343C8.16762 18.5905 8.15238 18.3467 8.18286 18.1029C8.28952 16.9752 9.21905 16.0914 10.3467 16.0305C10.621 16.0152 10.9105 16.061 11.1848 16.1524C11.52 16.2743 11.8248 16.4571 12.0686 16.701L15.0095 19.6419C17.1124 17.539 19.1848 15.3752 21.3333 13.3181C21.4095 13.2419 21.4095 13.2419 21.501 13.181C21.8514 12.9219 22.2324 12.7848 22.6743 12.7238C22.7505 12.7086 22.8571 12.7086 22.9638 12.7086ZM27.4286 32H4.57143C2.0419 32 0 29.9581 0 27.4286V12.5714C0 11.0171 0.777143 9.63048 1.96571 8.80762L2.10286 8.71619L14.4762 0.487619C14.9029 0.182857 15.4362 0 16 0C16.5638 0 17.0971 0.182857 17.5238 0.487619L29.9886 8.79238C31.2076 9.61524 32 11.0019 32 12.5714V27.4286C32 29.9581 29.9581 32 27.4286 32Z" fill="white"/>
</svg>
