<?xml version="1.0" encoding="UTF-8"?>
<svg data-bbox="0 0 475.66 508.432" viewBox="0 0 475.67 512.41" xmlns="http://www.w3.org/2000/svg" data-type="ugc">
    <g>
        <g>
            <path fill="#cfd7dd" d="M475.66 237.83c0 131.35-106.48 237.83-237.83 237.83C106.48 475.66 0 369.18 0 237.83 0 106.48 106.48 0 237.83 0c131.35 0 237.83 106.48 237.83 237.83z"/>
            <path d="M294.45 443a57.61 57.61 0 0 0-48-48.22 97 97 0 0 0-13.25-.49c-14.43 1.52-26 6.91-35.76 16.66A56.72 56.72 0 0 0 181.22 443a75.11 75.11 0 0 0 0 16.69 57.64 57.64 0 0 0 48.27 48.27 73.93 73.93 0 0 0 16.69 0 57.64 57.64 0 0 0 48.27-48.27 75.92 75.92 0 0 0 0-16.69z" fill-rule="evenodd" stroke-width="8" stroke-miterlimit="10" stroke="#00b771" fill="#ffffff"/>
            <path d="M269.23 433.54a3.88 3.88 0 0 1-.85 2.95c-1 1.38-35.81 36.2-37.09 37.06a5.91 5.91 0 0 1-4.48.56c-.81-.26-3-2.27-10.24-9.5-6-5.94-9.4-9.56-9.73-10.25a4.79 4.79 0 0 1 .13-4.5 5.18 5.18 0 0 1 7.15-2.32c.44.23 3.88 3.46 7.63 7.19l6.82 6.78 16.22-16.2C255.13 435 261.35 429 261.94 428.7a5.43 5.43 0 0 1 6.49 1.94 3.83 3.83 0 0 1 .8 2.9z" fill="#00b771" fill-rule="evenodd"/>
            <path fill="none" stroke="#363636" stroke-width="8" stroke-miterlimit="10" d="M316.48 110.17v216.5c0 16.359-13.261 29.62-29.62 29.62h-98.04c-16.359 0-29.62-13.261-29.62-29.62v-216.5c0-16.359 13.261-29.62 29.62-29.62h98.04c16.359 0 29.62 13.261 29.62 29.62z"/>
            <path d="M276.9 80.55v13.53a14 14 0 0 1-14 14h-50a14 14 0 0 1-14-14V80.55" fill="none" stroke="#363636" stroke-width="8" stroke-miterlimit="10"/>
            <path stroke-linecap="round" stroke-linejoin="round" fill="none" stroke="#363636" stroke-width="8" d="M204.05 329.91h67.57"/>
            <path d="M366.54 212.82c-3.16-3.61-24.37-26.89-26.59-29.18-2.6-2.68-4.68-3.93-7.5-4.53A11.54 11.54 0 0 0 327 179a14.21 14.21 0 0 0-9.79 7.5 10.42 10.42 0 0 1-1.1 2 4.48 4.48 0 0 1-1-.59c-3.37-2.4-9.87-2.49-13.91-.2-2.48 1.41-5.46 4.9-6 7-.12.46-.27.84-.35.84s-1.19-.5-2.46-1.11a13.69 13.69 0 0 0-18.09 6.19c-.49 1-.93 1.9-1 2s-3.36-3.11-7.26-7c-7.91-7.85-9.08-8.68-13.13-9.25a13.28 13.28 0 0 0-11.76 4.08A13.59 13.59 0 0 0 238.9 206c.87 1.83 3 4.09 26 27.15 13.73 13.76 24.9 25 24.9 25.14-.49 0-28 4.36-29.47 4.67a16.32 16.32 0 0 0-9.7 6.18c-2.6 3.57-3.7 8.3-2.79 11.91a11.15 11.15 0 0 0 7.11 7.73c1.7.59 73.53.63 76.92 0a42.39 42.39 0 0 0 17-7.17c2.8-2.07 12.67-11.61 16.79-16.22a39.15 39.15 0 0 0 .79-52.64zm1.46 34.45a38.7 38.7 0 0 1-4.8 10.08c-1.63 2.31-13.93 14.9-17.07 17.47a33.47 33.47 0 0 1-12.76 6.4c-3.93 1-9.37 1.13-43 1-30.35-.08-33.28-.13-33.94-.6a3.56 3.56 0 0 1-1.65-3.6 8.61 8.61 0 0 1 5.13-7.45c.76-.34 8.51-1.69 19.94-3.49 10.28-1.62 19.08-3.14 19.56-3.39a3.7 3.7 0 0 0 1.56-3.91c-.22-.77-7-7.75-27.94-28.71-29.66-29.69-28.46-28.36-28.41-31.47a6.48 6.48 0 0 1 9-5.75c.58.29 9.42 8.88 19.66 19.08 19.72 19.66 19.51 19.49 21.72 18.89a3.61 3.61 0 0 0 2.47-4.18c-.13-.54-3.05-3.7-8.16-8.84-8.46-8.51-9.21-9.5-9.21-12.15a6.51 6.51 0 0 1 8.84-6c.74.31 4 3.31 9.3 8.58 7.07 7 8.32 8.14 9.34 8.33a3.56 3.56 0 0 0 4.2-2.78c.17-1.78-.07-2.14-4.57-6.73-5.12-5.22-5.78-6.31-5.54-9.19a6.19 6.19 0 0 1 6-5.71c2.72-.18 3.85.53 9.08 5.67 4.42 4.35 4.52 4.42 5.85 4.42a3.23 3.23 0 0 0 3.23-1.91c.69-1.35.37-2.78-1.06-4.65s-1.66-2.51-1.64-4.52a6.43 6.43 0 0 1 9.63-5.42c1.24.73 27.25 29.13 30 32.76a32.55 32.55 0 0 1 5.24 27.77z" fill="#363636" fill-rule="evenodd"/>
            <path d="M280.68 188.09a3.6 3.6 0 0 1-3.56 3.49c-1.49 0-2.6-.86-3.66-2.83a25.17 25.17 0 0 0-11.09-11.09 22.32 22.32 0 0 0-11.48-2.72 25 25 0 0 0-24.24 19.33 26.62 26.62 0 0 0 1.71 15.9c1.83 4 6.07 8.87 9.47 10.8 3.2 1.82 4.32 2.63 4.66 3.38a3.54 3.54 0 0 1-3.33 5.06c-1.88 0-7.35-3.44-10.58-6.66a32.09 32.09 0 0 1 2.37-48 31.83 31.83 0 0 1 32.86-4.46 33.78 33.78 0 0 1 12.89 10.14c1.8 2.43 3.98 6.57 3.98 7.66z" fill="#ff6004" fill-rule="evenodd"/>
            <path d="M368 247.27a38.7 38.7 0 0 1-4.8 10.08c-1.63 2.31-13.93 14.9-17.07 17.47a33.47 33.47 0 0 1-12.76 6.4c-3.93 1-9.37 1.13-43 1-30.35-.08-33.28-.13-33.94-.6a3.56 3.56 0 0 1-1.65-3.6 8.61 8.61 0 0 1 5.13-7.45c.76-.34 8.51-1.69 19.94-3.49 10.28-1.62 19.08-3.14 19.56-3.39a3.7 3.7 0 0 0 1.56-3.91c-.22-.77-7-7.75-27.94-28.71-29.66-29.69-28.46-28.36-28.41-31.47a6.48 6.48 0 0 1 9-5.75c.58.29 9.42 8.88 19.66 19.08 19.72 19.66 19.51 19.49 21.72 18.89a3.61 3.61 0 0 0 2.47-4.18c-.13-.54-3.05-3.7-8.16-8.84-8.46-8.51-9.21-9.5-9.21-12.15a6.51 6.51 0 0 1 8.84-6c.74.31 4 3.31 9.3 8.58 7.07 7 8.32 8.14 9.34 8.33a3.56 3.56 0 0 0 4.2-2.78c.17-1.78-.07-2.14-4.57-6.73-5.12-5.22-5.78-6.31-5.54-9.19a6.19 6.19 0 0 1 6-5.71c2.72-.18 3.85.53 9.08 5.67 4.42 4.35 4.52 4.42 5.85 4.42a3.23 3.23 0 0 0 3.23-1.91c.69-1.35.37-2.78-1.06-4.65s-1.66-2.51-1.64-4.52a6.43 6.43 0 0 1 9.63-5.42c1.24.73 27.25 29.13 30 32.76a32.55 32.55 0 0 1 5.24 27.77z" fill-rule="evenodd" fill="#ffffff"/>
        </g>
    </g>
</svg>
