<?xml version="1.0" encoding="UTF-8"?>
<svg data-bbox="0 0 475.66 508.432" viewBox="0 0 475.67 512.41" xmlns="http://www.w3.org/2000/svg" data-type="ugc">
    <g>
        <g>
            <path fill="#cfd7dd" d="M475.66 237.83c0 131.35-106.48 237.83-237.83 237.83C106.48 475.66 0 369.18 0 237.83 0 106.48 106.48 0 237.83 0c131.35 0 237.83 106.48 237.83 237.83z"/>
            <path d="M294.45 443a57.61 57.61 0 0 0-48-48.22 97 97 0 0 0-13.25-.49c-14.43 1.52-26 6.91-35.76 16.66A56.72 56.72 0 0 0 181.22 443a75.11 75.11 0 0 0 0 16.69 57.64 57.64 0 0 0 48.27 48.27 73.93 73.93 0 0 0 16.69 0 57.64 57.64 0 0 0 48.27-48.27 75.92 75.92 0 0 0 0-16.69z" fill-rule="evenodd" stroke="#00b771" stroke-miterlimit="10" stroke-width="8" fill="#ffffff"/>
            <path d="M269.23 433.54a3.88 3.88 0 0 1-.85 2.95c-1 1.38-35.81 36.2-37.09 37.06a5.91 5.91 0 0 1-4.48.56c-.81-.26-3-2.27-10.24-9.5-6-5.94-9.4-9.56-9.73-10.25a4.79 4.79 0 0 1 .13-4.5 5.18 5.18 0 0 1 7.15-2.32c.44.23 3.88 3.46 7.63 7.19l6.82 6.78 16.22-16.2C255.13 435 261.35 429 261.94 428.7a5.43 5.43 0 0 1 6.49 1.94 3.83 3.83 0 0 1 .8 2.9z" fill="#00b771" fill-rule="evenodd"/>
            <path d="M256.93 313.24c-1-.91-1.72-1-8.11-1h-7v-51.6l-1.29-1c-2.74-2.16-3.63-1.68-11.59 6.21-6.51 6.47-7.29 7.42-7.29 8.9 0 2.25.68 3.35 2.47 4 2.09.73 3.46.1 6.92-3.2l2.91-2.78v39.52h-7c-6.4 0-7.14.09-8.12 1a4 4 0 0 0 .9 6.74c1.74.88 34.65.88 36.39 0a4 4 0 0 0 .81-6.79zm25-177.45-1.21-1.21H195l-1.21 1.21a4 4 0 0 0 .8 6.44c2.09 1.08 84.45 1.08 86.54 0a4 4 0 0 0 .78-6.44zm-25 177.45c-1-.91-1.72-1-8.11-1h-7v-51.6l-1.29-1c-2.74-2.16-3.63-1.68-11.59 6.21-6.51 6.47-7.29 7.42-7.29 8.9 0 2.25.68 3.35 2.47 4 2.09.73 3.46.1 6.92-3.2l2.91-2.78v39.52h-7c-6.4 0-7.14.09-8.12 1a4 4 0 0 0 .9 6.74c1.74.88 34.65.88 36.39 0a4 4 0 0 0 .81-6.79zm0 0c-1-.91-1.72-1-8.11-1h-7v-51.6l-1.29-1c-2.74-2.16-3.63-1.68-11.59 6.21-6.51 6.47-7.29 7.42-7.29 8.9 0 2.25.68 3.35 2.47 4 2.09.73 3.46.1 6.92-3.2l2.91-2.78v39.52h-7c-6.4 0-7.14.09-8.12 1a4 4 0 0 0 .9 6.74c1.74.88 34.65.88 36.39 0a4 4 0 0 0 .81-6.79zm0 0c-1-.91-1.72-1-8.11-1h-7v-51.6l-1.29-1c-2.74-2.16-3.63-1.68-11.59 6.21-6.51 6.47-7.29 7.42-7.29 8.9 0 2.25.68 3.35 2.47 4 2.09.73 3.46.1 6.92-3.2l2.91-2.78v39.52h-7c-6.4 0-7.14.09-8.12 1a4 4 0 0 0 .9 6.74c1.74.88 34.65.88 36.39 0a4 4 0 0 0 .81-6.79zm37.78-35.94a57.43 57.43 0 0 0-54.9-47.49 75.22 75.22 0 0 0-9.6.23 58 58 0 0 0-44.3 32.18 57 57 0 0 0-5.55 30.09c1.44 20.58 15.2 39.78 34.46 48.08a57.86 57.86 0 0 0 79.86-42.56 72.76 72.76 0 0 0 .03-20.53zm-33.87 53.87a48 48 0 0 1-25.34 5.56c-12.52-.55-22.71-5-32-13.89a49.56 49.56 0 0 1 25.32-84.15 58.55 58.55 0 0 1 17.78 0c11.13 2.11 19.77 6.9 27.72 15.38a49.51 49.51 0 0 1 12.79 28.24c2.18 19.78-8.37 39.42-26.27 48.86zm-12-18.93h-7v-51.6l-1.29-1c-2.74-2.16-3.63-1.68-11.59 6.21-6.51 6.47-7.29 7.42-7.29 8.9 0 2.25.68 3.35 2.47 4 2.09.73 3.46.1 6.92-3.2l2.91-2.78v39.52h-7c-6.4 0-7.14.09-8.12 1a4 4 0 0 0 .9 6.74c1.74.88 34.65.88 36.39 0a4 4 0 0 0 .9-6.74c-1.04-.96-1.83-1.05-8.22-1.05zm8.11 1c-1-.91-1.72-1-8.11-1h-7v-51.6l-1.29-1c-2.74-2.16-3.63-1.68-11.59 6.21-6.51 6.47-7.29 7.42-7.29 8.9 0 2.25.68 3.35 2.47 4 2.09.73 3.46.1 6.92-3.2l2.91-2.78v39.52h-7c-6.4 0-7.14.09-8.12 1a4 4 0 0 0 .9 6.74c1.74.88 34.65.88 36.39 0a4 4 0 0 0 .79-6.79zm0 0c-1-.91-1.72-1-8.11-1h-7v-51.6l-1.29-1c-2.74-2.16-3.63-1.68-11.59 6.21-6.51 6.47-7.29 7.42-7.29 8.9 0 2.25.68 3.35 2.47 4 2.09.73 3.46.1 6.92-3.2l2.91-2.78v39.52h-7c-6.4 0-7.14.09-8.12 1a4 4 0 0 0 .9 6.74c1.74.88 34.65.88 36.39 0a4 4 0 0 0 .79-6.79zm0 0c-1-.91-1.72-1-8.11-1h-7v-51.6l-1.29-1c-2.74-2.16-3.63-1.68-11.59 6.21-6.51 6.47-7.29 7.42-7.29 8.9 0 2.25.68 3.35 2.47 4 2.09.73 3.46.1 6.92-3.2l2.91-2.78v39.52h-7c-6.4 0-7.14.09-8.12 1a4 4 0 0 0 .9 6.74c1.74.88 34.65.88 36.39 0a4 4 0 0 0 .79-6.79zm0 0c-1-.91-1.72-1-8.11-1h-7v-51.6l-1.29-1c-2.74-2.16-3.63-1.68-11.59 6.21-6.51 6.47-7.29 7.42-7.29 8.9 0 2.25.68 3.35 2.47 4 2.09.73 3.46.1 6.92-3.2l2.91-2.78v39.52h-7c-6.4 0-7.14.09-8.12 1a4 4 0 0 0 .9 6.74c1.74.88 34.65.88 36.39 0a4 4 0 0 0 .79-6.79zm37.78-35.94a57.43 57.43 0 0 0-54.9-47.49 75.22 75.22 0 0 0-9.6.23 58 58 0 0 0-44.3 32.18 57 57 0 0 0-5.55 30.09c1.44 20.58 15.2 39.78 34.46 48.08a57.86 57.86 0 0 0 79.86-42.56 72.76 72.76 0 0 0 .01-20.53zm-33.87 53.87a48 48 0 0 1-25.34 5.56c-12.52-.55-22.71-5-32-13.89a49.56 49.56 0 0 1 25.32-84.15 58.55 58.55 0 0 1 17.78 0c11.13 2.11 19.77 6.9 27.72 15.38a49.51 49.51 0 0 1 12.79 28.24c2.16 19.78-8.39 39.42-26.29 48.86zm-12-18.93h-7v-51.6l-1.29-1c-2.74-2.16-3.63-1.68-11.59 6.21-6.51 6.47-7.29 7.42-7.29 8.9 0 2.25.68 3.35 2.47 4 2.09.73 3.46.1 6.92-3.2l2.91-2.78v39.52h-7c-6.4 0-7.14.09-8.12 1a4 4 0 0 0 .9 6.74c1.74.88 34.65.88 36.39 0a4 4 0 0 0 .9-6.74c-1.06-.96-1.85-1.05-8.24-1.05zm8.11 1c-1-.91-1.72-1-8.11-1h-7v-51.6l-1.29-1c-2.74-2.16-3.63-1.68-11.59 6.21-6.51 6.47-7.29 7.42-7.29 8.9 0 2.25.68 3.35 2.47 4 2.09.73 3.46.1 6.92-3.2l2.91-2.78v39.52h-7c-6.4 0-7.14.09-8.12 1a4 4 0 0 0 .9 6.74c1.74.88 34.65.88 36.39 0a4 4 0 0 0 .77-6.79zm0 0c-1-.91-1.72-1-8.11-1h-7v-51.6l-1.29-1c-2.74-2.16-3.63-1.68-11.59 6.21-6.51 6.47-7.29 7.42-7.29 8.9 0 2.25.68 3.35 2.47 4 2.09.73 3.46.1 6.92-3.2l2.91-2.78v39.52h-7c-6.4 0-7.14.09-8.12 1a4 4 0 0 0 .9 6.74c1.74.88 34.65.88 36.39 0a4 4 0 0 0 .77-6.79zm25-177.45-1.21-1.21H195l-1.21 1.21a4 4 0 0 0 .8 6.44c2.09 1.08 84.45 1.08 86.54 0a4 4 0 0 0 .78-6.44zm-25 177.45c-1-.91-1.72-1-8.11-1h-7v-51.6l-1.29-1c-2.74-2.16-3.63-1.68-11.59 6.21-6.51 6.47-7.29 7.42-7.29 8.9 0 2.25.68 3.35 2.47 4 2.09.73 3.46.1 6.92-3.2l2.91-2.78v39.52h-7c-6.4 0-7.14.09-8.12 1a4 4 0 0 0 .9 6.74c1.74.88 34.65.88 36.39 0a4 4 0 0 0 .77-6.79zm25-177.45-1.21-1.21H195l-1.21 1.21a4 4 0 0 0 .8 6.44c2.09 1.08 84.45 1.08 86.54 0a4 4 0 0 0 .78-6.44zm-25 177.45c-1-.91-1.72-1-8.11-1h-7v-51.6l-1.29-1c-2.74-2.16-3.63-1.68-11.59 6.21-6.51 6.47-7.29 7.42-7.29 8.9 0 2.25.68 3.35 2.47 4 2.09.73 3.46.1 6.92-3.2l2.91-2.78v39.52h-7c-6.4 0-7.14.09-8.12 1a4 4 0 0 0 .9 6.74c1.74.88 34.65.88 36.39 0a4 4 0 0 0 .77-6.79zm37.78-35.94a57.43 57.43 0 0 0-54.9-47.49 75.22 75.22 0 0 0-9.6.23 58 58 0 0 0-44.3 32.18 57 57 0 0 0-5.55 30.09c1.44 20.58 15.2 39.78 34.46 48.08a57.86 57.86 0 0 0 79.86-42.56 72.76 72.76 0 0 0-.01-20.53zm-33.87 53.87a48 48 0 0 1-25.34 5.56c-12.52-.55-22.71-5-32-13.89a49.56 49.56 0 0 1 25.32-84.15 58.55 58.55 0 0 1 17.78 0c11.13 2.11 19.77 6.9 27.72 15.38a49.51 49.51 0 0 1 12.79 28.24c2.14 19.78-8.41 39.42-26.31 48.86zm-12-18.93h-7v-51.6l-1.29-1c-2.74-2.16-3.63-1.68-11.59 6.21-6.51 6.47-7.29 7.42-7.29 8.9 0 2.25.68 3.35 2.47 4 2.09.73 3.46.1 6.92-3.2l2.91-2.78v39.52h-7c-6.4 0-7.14.09-8.12 1a4 4 0 0 0 .9 6.74c1.74.88 34.65.88 36.39 0a4 4 0 0 0 .9-6.74c-1.08-.96-1.87-1.05-8.26-1.05zm45.89-34.94a57.43 57.43 0 0 0-54.9-47.49 75.22 75.22 0 0 0-9.6.23 58 58 0 0 0-44.3 32.18 57 57 0 0 0-5.55 30.09c1.44 20.58 15.2 39.78 34.46 48.08a57.86 57.86 0 0 0 79.86-42.56 72.76 72.76 0 0 0-.03-20.53zm-33.87 53.87a48 48 0 0 1-25.34 5.56c-12.52-.55-22.71-5-32-13.89a49.56 49.56 0 0 1 25.32-84.15 58.55 58.55 0 0 1 17.78 0c11.13 2.11 19.77 6.9 27.72 15.38a49.51 49.51 0 0 1 12.79 28.24c2.12 19.78-8.43 39.42-26.33 48.86zm-12-18.93h-7v-51.6l-1.29-1c-2.74-2.16-3.63-1.68-11.59 6.21-6.51 6.47-7.29 7.42-7.29 8.9 0 2.25.68 3.35 2.47 4 2.09.73 3.46.1 6.92-3.2l2.91-2.78v39.52h-7c-6.4 0-7.14.09-8.12 1a4 4 0 0 0 .9 6.74c1.74.88 34.65.88 36.39 0a4 4 0 0 0 .9-6.74c-1.1-.96-1.89-1.05-8.28-1.05zm33.09-176.45-1.21-1.21H195l-1.21 1.21a4 4 0 0 0 .8 6.44c2.09 1.08 84.45 1.08 86.54 0a4 4 0 0 0 .78-6.44zm77.71 6.08c-1.06-1.62-29.73-24.49-33.89-27-1.48-.9-4.16-.93-88-.93h-86.45l-1.82 1.23c-6 4.1-32.53 25.26-33.51 26.77a12.51 12.51 0 0 0-.86 12.09c.42.81 14.39 21.52 31 46s30.27 44.76 30.27 45a17.42 17.42 0 0 1-1.88 3.43 77.69 77.69 0 0 0-9.69 24.58c-1.46 6.83-1.56 20.41-.22 27.61 5.72 30.61 28.75 53.78 59.52 59.89 11.12 2.21 25.39 1.29 36.59-2.34A74.87 74.87 0 0 0 311 300.67c1.35-7.21 1.24-20.78-.22-27.63a78.36 78.36 0 0 0-9.83-24.78 16.13 16.13 0 0 1-1.74-3.21c0-.28 13.62-20.55 30.28-45s30.62-45.2 31-46a12.49 12.49 0 0 0-.87-12.18zm-43.48-19.59-1.62 2.85c-.9 1.57-5.17 9-9.49 16.48l-7.87 13.64H178.52l-8.58-14.89c-4.72-8.19-9-15.6-9.52-16.48l-.93-1.6zm-24.33 42c-.26.68-29.81 52-30.17 52.43a8.45 8.45 0 0 1-2.77-.57 74.3 74.3 0 0 0-38.67-.84 59.67 59.67 0 0 1-6.22 1.36c-.34-.4-29.89-51.77-30.12-52.38s7.76-.68 54-.68 54.06.12 53.87.7zm-169.4-14.55c-.65-2 .3-3.37 5-7.1a40.81 40.81 0 0 1 4.85-3.57c.08.1 4.4 6.82 9.61 14.94s9.92 15.26 10.48 15.87a4.43 4.43 0 0 0 5.77.12c2.24-2.23 1.73-3.35-9.16-20.25-7.62-11.83-10-15.89-9.58-16.32 1.73-1.73 11.65-9 11.91-8.78s12.54 21.58 27.5 47.57l27.39 47.57c.17.32-7.94 4.84-8.69 4.84-.21 0-6.09-8.87-13-19.7s-13.2-19.92-13.69-20.16a4.29 4.29 0 0 0-6.07 2.76c-.43 1.42.35 2.77 13.91 23.82l11.88 18.44-4.06 4.08c-2.23 2.24-4.21 4-4.4 3.95-.53-.19-59.38-86.94-59.73-88.06zm180.92 129c.73 5.12.32 17.19-.74 22-5.92 26.7-26.65 46.9-53.12 51.79-6.6 1.22-18.28 1.09-24.52-.26A66.63 66.63 0 0 1 173 300.43c-1.26-5.9-1.26-20.19 0-26.09a66.39 66.39 0 0 1 17.5-32.95c14.5-14.73 34.11-21.86 54.09-19.67a66 66 0 0 1 58.74 56.99zm50-129.18c-.28 1.13-59.13 88.05-59.76 88.28-.2.07-2.18-1.71-4.41-3.95l-4.05-4.08L297 211.34c13.55-21.05 14.34-22.4 13.91-23.82a4.29 4.29 0 0 0-6.09-2.75c-.5.27-6.59 9.35-13.55 20.18s-12.9 19.69-13.22 19.69a3.67 3.67 0 0 1-1.55-.67c-.54-.37-2.36-1.39-4-2.27s-3-1.73-2.9-1.91S282 198 297.13 171.85c18.92-32.83 27.62-47.49 28-47.19l6.09 4.73a64.42 64.42 0 0 1 5.54 4.56c0 .14-4.54 7.32-10.09 15.94-10.28 16-10.89 17.22-9.61 19.61.66 1.24 3.2 2.06 4.66 1.51s2.16-1.46 12.58-17.73c4.94-7.71 9.05-14.1 9.13-14.2.35-.4 9.51 7.36 9.82 8.31a4.68 4.68 0 0 1 .05 2.14zm-113.6 80.26a75.22 75.22 0 0 0-9.6.23 58 58 0 0 0-44.3 32.18 57 57 0 0 0-5.55 30.09c1.44 20.58 15.2 39.78 34.46 48.08a57.86 57.86 0 0 0 79.86-42.56 72.76 72.76 0 0 0 0-20.53 57.43 57.43 0 0 0-54.87-47.49zm21 101.36a48 48 0 0 1-25.34 5.56c-12.52-.55-22.71-5-32-13.89a49.56 49.56 0 0 1 25.32-84.15 58.55 58.55 0 0 1 17.78 0c11.13 2.11 19.77 6.9 27.72 15.38a49.51 49.51 0 0 1 12.79 28.24c2.21 19.78-8.34 39.42-26.24 48.86zm-66.24-188.94c2.09 1.08 84.45 1.08 86.54 0a4 4 0 0 0 .8-6.44l-1.21-1.21H195l-1.21 1.21a4 4 0 0 0 .78 6.44zm54.25 170h-7v-51.6l-1.29-1c-2.74-2.16-3.63-1.68-11.59 6.21-6.51 6.47-7.29 7.42-7.29 8.9 0 2.25.68 3.35 2.47 4 2.09.73 3.46.1 6.92-3.2l2.91-2.78v39.52h-7c-6.4 0-7.14.09-8.12 1a4 4 0 0 0 .9 6.74c1.74.88 34.65.88 36.39 0a4 4 0 0 0 .9-6.74c-1.02-.95-1.81-1.04-8.2-1.04zm33.09-176.45-1.21-1.21H195l-1.21 1.21a4 4 0 0 0 .8 6.44c2.09 1.08 84.45 1.08 86.54 0a4 4 0 0 0 .78-6.43zm-25 177.45c-1-.91-1.72-1-8.11-1h-7v-51.6l-1.29-1c-2.74-2.16-3.63-1.68-11.59 6.21-6.51 6.47-7.29 7.42-7.29 8.9 0 2.25.68 3.35 2.47 4 2.09.73 3.46.1 6.92-3.2l2.91-2.78v39.52h-7c-6.4 0-7.14.09-8.12 1a4 4 0 0 0 .9 6.74c1.74.88 34.65.88 36.39 0a4 4 0 0 0 .83-6.78zm0 0c-1-.91-1.72-1-8.11-1h-7v-51.6l-1.29-1c-2.74-2.16-3.63-1.68-11.59 6.21-6.51 6.47-7.29 7.42-7.29 8.9 0 2.25.68 3.35 2.47 4 2.09.73 3.46.1 6.92-3.2l2.91-2.78v39.52h-7c-6.4 0-7.14.09-8.12 1a4 4 0 0 0 .9 6.74c1.74.88 34.65.88 36.39 0a4 4 0 0 0 .83-6.78zm37.78-35.94a57.43 57.43 0 0 0-54.9-47.49 75.22 75.22 0 0 0-9.6.23 58 58 0 0 0-44.3 32.18 57 57 0 0 0-5.55 30.09c1.44 20.58 15.2 39.78 34.46 48.08a57.86 57.86 0 0 0 79.86-42.56 72.76 72.76 0 0 0 .05-20.52zm-33.87 53.87a48 48 0 0 1-25.34 5.56c-12.52-.55-22.71-5-32-13.89a49.56 49.56 0 0 1 25.32-84.15 58.55 58.55 0 0 1 17.78 0c11.13 2.11 19.77 6.9 27.72 15.38a49.51 49.51 0 0 1 12.79 28.24c2.2 19.79-8.35 39.43-26.25 48.87zm-12-18.93h-7v-51.6l-1.29-1c-2.74-2.16-3.63-1.68-11.59 6.21-6.51 6.47-7.29 7.42-7.29 8.9 0 2.25.68 3.35 2.47 4 2.09.73 3.46.1 6.92-3.2l2.91-2.78v39.52h-7c-6.4 0-7.14.09-8.12 1a4 4 0 0 0 .9 6.74c1.74.88 34.65.88 36.39 0a4 4 0 0 0 .9-6.74c-1.02-.95-1.81-1.04-8.2-1.04zm8.11 1c-1-.91-1.72-1-8.11-1h-7v-51.6l-1.29-1c-2.74-2.16-3.63-1.68-11.59 6.21-6.51 6.47-7.29 7.42-7.29 8.9 0 2.25.68 3.35 2.47 4 2.09.73 3.46.1 6.92-3.2l2.91-2.78v39.52h-7c-6.4 0-7.14.09-8.12 1a4 4 0 0 0 .9 6.74c1.74.88 34.65.88 36.39 0a4 4 0 0 0 .81-6.78zm0 0c-1-.91-1.72-1-8.11-1h-7v-51.6l-1.29-1c-2.74-2.16-3.63-1.68-11.59 6.21-6.51 6.47-7.29 7.42-7.29 8.9 0 2.25.68 3.35 2.47 4 2.09.73 3.46.1 6.92-3.2l2.91-2.78v39.52h-7c-6.4 0-7.14.09-8.12 1a4 4 0 0 0 .9 6.74c1.74.88 34.65.88 36.39 0a4 4 0 0 0 .81-6.78zm37.78-35.94a57.43 57.43 0 0 0-54.9-47.49 75.22 75.22 0 0 0-9.6.23 58 58 0 0 0-44.3 32.18 57 57 0 0 0-5.55 30.09c1.44 20.58 15.2 39.78 34.46 48.08a57.86 57.86 0 0 0 79.86-42.56 72.76 72.76 0 0 0 .03-20.52zm-33.87 53.87a48 48 0 0 1-25.34 5.56c-12.52-.55-22.71-5-32-13.89a49.56 49.56 0 0 1 25.32-84.15 58.55 58.55 0 0 1 17.78 0c11.13 2.11 19.77 6.9 27.72 15.38a49.51 49.51 0 0 1 12.79 28.24c2.18 19.79-8.37 39.43-26.27 48.87zm-12-18.93h-7v-51.6l-1.29-1c-2.74-2.16-3.63-1.68-11.59 6.21-6.51 6.47-7.29 7.42-7.29 8.9 0 2.25.68 3.35 2.47 4 2.09.73 3.46.1 6.92-3.2l2.91-2.78v39.52h-7c-6.4 0-7.14.09-8.12 1a4 4 0 0 0 .9 6.74c1.74.88 34.65.88 36.39 0a4 4 0 0 0 .9-6.74c-1.04-.95-1.83-1.04-8.22-1.04zm8.11 1c-1-.91-1.72-1-8.11-1h-7v-51.6l-1.29-1c-2.74-2.16-3.63-1.68-11.59 6.21-6.51 6.47-7.29 7.42-7.29 8.9 0 2.25.68 3.35 2.47 4 2.09.73 3.46.1 6.92-3.2l2.91-2.78v39.52h-7c-6.4 0-7.14.09-8.12 1a4 4 0 0 0 .9 6.74c1.74.88 34.65.88 36.39 0a4 4 0 0 0 .79-6.78zm25-177.45-1.21-1.21H195l-1.21 1.21a4 4 0 0 0 .8 6.44c2.09 1.08 84.45 1.08 86.54 0a4 4 0 0 0 .78-6.43zm-25 177.45c-1-.91-1.72-1-8.11-1h-7v-51.6l-1.29-1c-2.74-2.16-3.63-1.68-11.59 6.21-6.51 6.47-7.29 7.42-7.29 8.9 0 2.25.68 3.35 2.47 4 2.09.73 3.46.1 6.92-3.2l2.91-2.78v39.52h-7c-6.4 0-7.14.09-8.12 1a4 4 0 0 0 .9 6.74c1.74.88 34.65.88 36.39 0a4 4 0 0 0 .79-6.78zm25-177.45-1.21-1.21H195l-1.21 1.21a4 4 0 0 0 .8 6.44c2.09 1.08 84.45 1.08 86.54 0a4 4 0 0 0 .78-6.43zm0 0-1.21-1.21H195l-1.21 1.21a4 4 0 0 0 .8 6.44c2.09 1.08 84.45 1.08 86.54 0a4 4 0 0 0 .78-6.43zm-25 177.45c-1-.91-1.72-1-8.11-1h-7v-51.6l-1.29-1c-2.74-2.16-3.63-1.68-11.59 6.21-6.51 6.47-7.29 7.42-7.29 8.9 0 2.25.68 3.35 2.47 4 2.09.73 3.46.1 6.92-3.2l2.91-2.78v39.52h-7c-6.4 0-7.14.09-8.12 1a4 4 0 0 0 .9 6.74c1.74.88 34.65.88 36.39 0a4 4 0 0 0 .79-6.78zm0 0c-1-.91-1.72-1-8.11-1h-7v-51.6l-1.29-1c-2.74-2.16-3.63-1.68-11.59 6.21-6.51 6.47-7.29 7.42-7.29 8.9 0 2.25.68 3.35 2.47 4 2.09.73 3.46.1 6.92-3.2l2.91-2.78v39.52h-7c-6.4 0-7.14.09-8.12 1a4 4 0 0 0 .9 6.74c1.74.88 34.65.88 36.39 0a4 4 0 0 0 .79-6.78zm0 0c-1-.91-1.72-1-8.11-1h-7v-51.6l-1.29-1c-2.74-2.16-3.63-1.68-11.59 6.21-6.51 6.47-7.29 7.42-7.29 8.9 0 2.25.68 3.35 2.47 4 2.09.73 3.46.1 6.92-3.2l2.91-2.78v39.52h-7c-6.4 0-7.14.09-8.12 1a4 4 0 0 0 .9 6.74c1.74.88 34.65.88 36.39 0a4 4 0 0 0 .79-6.78zm0 0c-1-.91-1.72-1-8.11-1h-7v-51.6l-1.29-1c-2.74-2.16-3.63-1.68-11.59 6.21-6.51 6.47-7.29 7.42-7.29 8.9 0 2.25.68 3.35 2.47 4 2.09.73 3.46.1 6.92-3.2l2.91-2.78v39.52h-7c-6.4 0-7.14.09-8.12 1a4 4 0 0 0 .9 6.74c1.74.88 34.65.88 36.39 0a4 4 0 0 0 .79-6.78zm37.78-35.94a57.43 57.43 0 0 0-54.9-47.49 75.22 75.22 0 0 0-9.6.23 58 58 0 0 0-44.3 32.18 57 57 0 0 0-5.55 30.09c1.44 20.58 15.2 39.78 34.46 48.08a57.86 57.86 0 0 0 79.86-42.56 72.76 72.76 0 0 0 .01-20.52zm-33.87 53.87a48 48 0 0 1-25.34 5.56c-12.52-.55-22.71-5-32-13.89a49.56 49.56 0 0 1 25.32-84.15 58.55 58.55 0 0 1 17.78 0c11.13 2.11 19.77 6.9 27.72 15.38a49.51 49.51 0 0 1 12.79 28.24c2.16 19.79-8.39 39.43-26.29 48.87zm-12-18.93h-7v-51.6l-1.29-1c-2.74-2.16-3.63-1.68-11.59 6.21-6.51 6.47-7.29 7.42-7.29 8.9 0 2.25.68 3.35 2.47 4 2.09.73 3.46.1 6.92-3.2l2.91-2.78v39.52h-7c-6.4 0-7.14.09-8.12 1a4 4 0 0 0 .9 6.74c1.74.88 34.65.88 36.39 0a4 4 0 0 0 .9-6.74c-1.06-.95-1.85-1.04-8.24-1.04zm8.11 1c-1-.91-1.72-1-8.11-1h-7v-51.6l-1.29-1c-2.74-2.16-3.63-1.68-11.59 6.21-6.51 6.47-7.29 7.42-7.29 8.9 0 2.25.68 3.35 2.47 4 2.09.73 3.46.1 6.92-3.2l2.91-2.78v39.52h-7c-6.4 0-7.14.09-8.12 1a4 4 0 0 0 .9 6.74c1.74.88 34.65.88 36.39 0a4 4 0 0 0 .77-6.78zm0 0c-1-.91-1.72-1-8.11-1h-7v-51.6l-1.29-1c-2.74-2.16-3.63-1.68-11.59 6.21-6.51 6.47-7.29 7.42-7.29 8.9 0 2.25.68 3.35 2.47 4 2.09.73 3.46.1 6.92-3.2l2.91-2.78v39.52h-7c-6.4 0-7.14.09-8.12 1a4 4 0 0 0 .9 6.74c1.74.88 34.65.88 36.39 0a4 4 0 0 0 .77-6.78zm0 0c-1-.91-1.72-1-8.11-1h-7v-51.6l-1.29-1c-2.74-2.16-3.63-1.68-11.59 6.21-6.51 6.47-7.29 7.42-7.29 8.9 0 2.25.68 3.35 2.47 4 2.09.73 3.46.1 6.92-3.2l2.91-2.78v39.52h-7c-6.4 0-7.14.09-8.12 1a4 4 0 0 0 .9 6.74c1.74.88 34.65.88 36.39 0a4 4 0 0 0 .77-6.78zm0 0c-1-.91-1.72-1-8.11-1h-7v-51.6l-1.29-1c-2.74-2.16-3.63-1.68-11.59 6.21-6.51 6.47-7.29 7.42-7.29 8.9 0 2.25.68 3.35 2.47 4 2.09.73 3.46.1 6.92-3.2l2.91-2.78v39.52h-7c-6.4 0-7.14.09-8.12 1a4 4 0 0 0 .9 6.74c1.74.88 34.65.88 36.39 0a4 4 0 0 0 .77-6.78zm0 0c-1-.91-1.72-1-8.11-1h-7v-51.6l-1.29-1c-2.74-2.16-3.63-1.68-11.59 6.21-6.51 6.47-7.29 7.42-7.29 8.9 0 2.25.68 3.35 2.47 4 2.09.73 3.46.1 6.92-3.2l2.91-2.78v39.52h-7c-6.4 0-7.14.09-8.12 1a4 4 0 0 0 .9 6.74c1.74.88 34.65.88 36.39 0a4 4 0 0 0 .77-6.78zm0 0c-1-.91-1.72-1-8.11-1h-7v-51.6l-1.29-1c-2.74-2.16-3.63-1.68-11.59 6.21-6.51 6.47-7.29 7.42-7.29 8.9 0 2.25.68 3.35 2.47 4 2.09.73 3.46.1 6.92-3.2l2.91-2.78v39.52h-7c-6.4 0-7.14.09-8.12 1a4 4 0 0 0 .9 6.74c1.74.88 34.65.88 36.39 0a4 4 0 0 0 .77-6.78zm-8.11-1h-7v-51.6l-1.29-1c-2.74-2.16-3.63-1.68-11.59 6.21-6.51 6.47-7.29 7.42-7.29 8.9 0 2.25.68 3.35 2.47 4 2.09.73 3.46.1 6.92-3.2l2.91-2.78v39.52h-7c-6.4 0-7.14.09-8.12 1a4 4 0 0 0 .9 6.74c1.74.88 34.65.88 36.39 0a4 4 0 0 0 .9-6.74c-1.06-.95-1.85-1.04-8.24-1.04zm8.11 1c-1-.91-1.72-1-8.11-1h-7v-51.6l-1.29-1c-2.74-2.16-3.63-1.68-11.59 6.21-6.51 6.47-7.29 7.42-7.29 8.9 0 2.25.68 3.35 2.47 4 2.09.73 3.46.1 6.92-3.2l2.91-2.78v39.52h-7c-6.4 0-7.14.09-8.12 1a4 4 0 0 0 .9 6.74c1.74.88 34.65.88 36.39 0a4 4 0 0 0 .77-6.78zm0 0c-1-.91-1.72-1-8.11-1h-7v-51.6l-1.29-1c-2.74-2.16-3.63-1.68-11.59 6.21-6.51 6.47-7.29 7.42-7.29 8.9 0 2.25.68 3.35 2.47 4 2.09.73 3.46.1 6.92-3.2l2.91-2.78v39.52h-7c-6.4 0-7.14.09-8.12 1a4 4 0 0 0 .9 6.74c1.74.88 34.65.88 36.39 0a4 4 0 0 0 .77-6.78zm0 0c-1-.91-1.72-1-8.11-1h-7v-51.6l-1.29-1c-2.74-2.16-3.63-1.68-11.59 6.21-6.51 6.47-7.29 7.42-7.29 8.9 0 2.25.68 3.35 2.47 4 2.09.73 3.46.1 6.92-3.2l2.91-2.78v39.52h-7c-6.4 0-7.14.09-8.12 1a4 4 0 0 0 .9 6.74c1.74.88 34.65.88 36.39 0a4 4 0 0 0 .77-6.78zm0 0c-1-.91-1.72-1-8.11-1h-7v-51.6l-1.29-1c-2.74-2.16-3.63-1.68-11.59 6.21-6.51 6.47-7.29 7.42-7.29 8.9 0 2.25.68 3.35 2.47 4 2.09.73 3.46.1 6.92-3.2l2.91-2.78v39.52h-7c-6.4 0-7.14.09-8.12 1a4 4 0 0 0 .9 6.74c1.74.88 34.65.88 36.39 0a4 4 0 0 0 .77-6.78z" fill="#363636" fill-rule="evenodd"/>
            <path d="M294.71 277.3a57.43 57.43 0 0 0-54.9-47.49 75.22 75.22 0 0 0-9.6.23 58 58 0 0 0-44.3 32.18 57 57 0 0 0-5.55 30.09c1.44 20.58 15.2 39.78 34.46 48.08a57.86 57.86 0 0 0 79.86-42.56 72.76 72.76 0 0 0 .03-20.53zm-33.87 53.87a48 48 0 0 1-25.34 5.56c-12.52-.55-22.71-5-32-13.89a49.56 49.56 0 0 1 25.32-84.15 58.55 58.55 0 0 1 17.78 0c11.13 2.11 19.77 6.9 27.72 15.38a49.51 49.51 0 0 1 12.79 28.24c2.18 19.78-8.37 39.42-26.27 48.86z" fill="#363636" fill-rule="evenodd"/>
            <path d="M353.3 149.53c-.28 1.13-59.13 88.05-59.76 88.28-.2.07-2.18-1.71-4.41-3.95l-4.05-4.08L297 211.34c13.55-21.05 14.34-22.4 13.91-23.82a4.29 4.29 0 0 0-6.09-2.75c-.5.27-6.59 9.35-13.55 20.18s-12.9 19.69-13.22 19.69a3.67 3.67 0 0 1-1.55-.67c-.54-.37-2.36-1.39-4-2.27s-3-1.73-2.9-1.91S282 198 297.13 171.85c18.92-32.83 27.62-47.49 28-47.19l6.09 4.73a64.42 64.42 0 0 1 5.54 4.56c0 .14-4.54 7.32-10.09 15.94-10.28 16-10.89 17.22-9.61 19.61.66 1.24 3.2 2.06 4.66 1.51s2.16-1.46 12.58-17.73c4.94-7.71 9.05-14.1 9.13-14.2.35-.4 9.51 7.36 9.82 8.31a4.68 4.68 0 0 1 .05 2.14z" fill-rule="evenodd" fill="#ffffff"/>
            <path d="M206.17 219.8c.17.32-7.94 4.84-8.69 4.84-.21 0-6.09-8.87-13-19.7s-13.11-19.94-13.6-20.18a4.29 4.29 0 0 0-6.07 2.76c-.43 1.42.35 2.77 13.91 23.82l11.88 18.44-4.06 4.08c-2.23 2.24-4.21 4-4.4 3.95-.53-.19-59.38-86.94-59.73-88.06-.65-2 .3-3.37 5-7.1a40.81 40.81 0 0 1 4.85-3.57c.08.1 4.4 6.82 9.61 14.94s9.92 15.26 10.48 15.87a4.43 4.43 0 0 0 5.77.12c2.24-2.23 1.73-3.35-9.16-20.25-7.62-11.83-10-15.89-9.58-16.32 1.73-1.73 11.65-9 11.91-8.78s12.54 21.58 27.5 47.57z" fill-rule="evenodd" fill="#ffffff"/>
            <path d="M303.33 278.71a66 66 0 0 0-58.71-57c-20-2.19-39.59 4.94-54.09 19.67A66.39 66.39 0 0 0 173 274.34c-1.26 5.9-1.26 20.19 0 26.09a66.63 66.63 0 0 0 52 51.77c6.24 1.35 17.92 1.48 24.52.26 26.47-4.89 47.2-25.09 53.12-51.79 1.01-4.77 1.42-16.84.69-21.96zm-8.65 19.12a57.86 57.86 0 0 1-79.86 42.56c-19.26-8.3-33-27.5-34.46-48.08a57 57 0 0 1 5.55-30.09 58 58 0 0 1 44.3-32.22 75.22 75.22 0 0 1 9.6-.23 57.43 57.43 0 0 1 54.9 47.49 72.76 72.76 0 0 1-.03 20.57z" fill="#ff6004" fill-rule="evenodd"/>
            <path d="M287.08 282.29a49.51 49.51 0 0 0-12.79-28.24c-8-8.48-16.59-13.27-27.72-15.38a58.55 58.55 0 0 0-17.78 0 49.56 49.56 0 0 0-25.32 84.15c9.32 8.92 19.51 13.34 32 13.89a48 48 0 0 0 25.34-5.56c17.93-9.42 28.48-29.06 26.27-48.86zM256 320c-1.74.88-34.65.88-36.39 0a4 4 0 0 1-.9-6.74c1-.91 1.72-1 8.12-1h7v-39.54L231 275.5c-3.46 3.3-4.83 3.93-6.92 3.2-1.79-.62-2.47-1.72-2.47-4 0-1.48.78-2.43 7.29-8.9 8-7.89 8.85-8.37 11.59-6.21l1.29 1v51.6h7c6.39 0 7.14.09 8.11 1A4 4 0 0 1 256 320z" fill-rule="evenodd" fill="#cfd7dd"/>
            <path d="M256 320c-1.74.88-34.65.88-36.39 0a4 4 0 0 1-.9-6.74c1-.91 1.72-1 8.12-1h7v-39.54L231 275.5c-3.46 3.3-4.83 3.93-6.92 3.2-1.79-.62-2.47-1.72-2.47-4 0-1.48.78-2.43 7.29-8.9 8-7.89 8.85-8.37 11.59-6.21l1.29 1v51.6h7c6.39 0 7.14.09 8.11 1A4 4 0 0 1 256 320z" fill="#363636"/>
        </g>
    </g>
</svg>
