<?xml version="1.0" encoding="UTF-8"?>
<svg data-bbox="0 0 475.66 508.432" viewBox="0 0 475.67 512.41" xmlns="http://www.w3.org/2000/svg" data-type="ugc">
    <g>
        <g>
            <path fill="#cfd7dd" d="M475.66 237.83c0 131.35-106.48 237.83-237.83 237.83C106.48 475.66 0 369.18 0 237.83 0 106.48 106.48 0 237.83 0c131.35 0 237.83 106.48 237.83 237.83z"/>
            <path stroke-width="8" fill="none" stroke="#363636" stroke-linecap="round" stroke-linejoin="round" d="m409.38 203.19-40 69.29h80l-40-69.29h0z"/>
            <path stroke-width="8" fill="none" stroke="#363636" stroke-linecap="round" stroke-linejoin="round" d="M106.28 237.83c0 22.091-17.909 40-40 40s-40-17.909-40-40 17.909-40 40-40 40 17.909 40 40z"/>
            <path stroke-width="8" fill="none" stroke="#363636" stroke-linecap="round" stroke-linejoin="round" d="M89.14 237.83c0 12.625-10.235 22.86-22.86 22.86s-22.86-10.235-22.86-22.86 10.235-22.86 22.86-22.86 22.86 10.235 22.86 22.86z"/>
            <path stroke-width="8" fill="none" stroke="#363636" stroke-linecap="round" stroke-linejoin="round" d="M167.02 237.83h-17.5"/>
            <path stroke-width="8" fill="none" stroke="#363636" stroke-linecap="round" stroke-linejoin="round" d="M123.78 237.83h-17.5"/>
            <path stroke-width="8" fill="none" stroke="#363636" stroke-linecap="round" stroke-linejoin="round" d="M383.57 237.83h-17.5"/>
            <path stroke-width="8" fill="none" stroke="#363636" stroke-linecap="round" stroke-linejoin="round" d="M336.52 237.83h-17.5"/>
            <path fill="#ff6004" d="M307.78 200.33v75l-64.95 37.5 64.95-112.5z"/>
            <path fill="#ffffff" d="M242.83 312.83v-75l64.95-37.5-64.95 112.5z"/>
            <path fill="#ffffff" d="M177.88 200.33v75l64.95-37.5-64.95-37.5z"/>
            <path fill="#ff6004" d="M242.83 312.83v-75l-64.95 37.5 64.95 37.5z"/>
            <path fill="#ffffff" d="m307.78 200.33-64.95-37.5-64.95 37.5h129.9z"/>
            <path fill="#ff6004" d="m177.88 200.33 64.95 37.5 64.95-37.5h-129.9z"/>
            <path d="M338.52 337.83h-29.64a4.31 4.31 0 0 1 0-8.62h25.33v-25.32a4.31 4.31 0 0 1 8.62 0v29.63a4.31 4.31 0 0 1-4.31 4.31z" fill="#363636"/>
            <path d="M176.77 337.83h-29.63a4.31 4.31 0 0 1-4.31-4.31v-29.63a4.31 4.31 0 0 1 8.62 0v25.32h25.32a4.31 4.31 0 1 1 0 8.62z" fill="#363636"/>
            <path d="M147.14 176.09a4.31 4.31 0 0 1-4.31-4.31v-29.64a4.31 4.31 0 0 1 4.31-4.31h29.63a4.31 4.31 0 1 1 0 8.62h-25.32v25.33a4.31 4.31 0 0 1-4.31 4.31z" fill="#363636"/>
            <path d="M338.52 176.09a4.31 4.31 0 0 1-4.31-4.31v-25.33h-25.33a4.31 4.31 0 0 1 0-8.62h29.64a4.31 4.31 0 0 1 4.31 4.31v29.64a4.31 4.31 0 0 1-4.31 4.31z" fill="#363636"/>
            <path d="M294.45 443a57.61 57.61 0 0 0-48-48.22 97 97 0 0 0-13.25-.49c-14.43 1.52-26 6.91-35.76 16.66A56.72 56.72 0 0 0 181.22 443a75.11 75.11 0 0 0 0 16.69 57.64 57.64 0 0 0 48.27 48.27 73.93 73.93 0 0 0 16.69 0 57.64 57.64 0 0 0 48.27-48.27 75.92 75.92 0 0 0 0-16.69z" stroke="#00b771" stroke-miterlimit="10" fill-rule="evenodd" fill="#ffffff" stroke-width="8"/>
            <path d="M269.23 433.54a3.88 3.88 0 0 1-.85 2.95c-1 1.38-35.81 36.2-37.09 37.06a5.91 5.91 0 0 1-4.48.56c-.81-.26-3-2.27-10.24-9.5-6-5.94-9.4-9.56-9.73-10.25a4.79 4.79 0 0 1 .13-4.5 5.18 5.18 0 0 1 7.15-2.32c.44.23 3.88 3.46 7.63 7.19l6.82 6.78 16.22-16.2C255.13 435 261.35 429 261.94 428.7a5.43 5.43 0 0 1 6.49 1.94 3.83 3.83 0 0 1 .8 2.9z" fill="#00b771" fill-rule="evenodd"/>
        </g>
    </g>
</svg>
