<?xml version="1.0" encoding="UTF-8"?>
<svg data-bbox="0 0 475.66 508.432" viewBox="0 0 475.67 512.41" xmlns="http://www.w3.org/2000/svg" data-type="ugc">
    <g>
        <g>
            <path fill="#cfd7dd" d="M475.66 237.83c0 131.35-106.48 237.83-237.83 237.83C106.48 475.66 0 369.18 0 237.83 0 106.48 106.48 0 237.83 0c131.35 0 237.83 106.48 237.83 237.83z"/>
            <path fill="#ff6004" d="M318.77 152.81c0 31.386-25.444 56.83-56.83 56.83s-56.83-25.444-56.83-56.83 25.444-56.83 56.83-56.83 56.83 25.444 56.83 56.83z"/>
            <path d="M160.24 385.11a3.57 3.57 0 0 1-1.81-.49c-.75-.57-14.23-13.89-34.36-34.21l-33-33.3v-4.29l15.09-15.05c16.9-16.87 17.81-17.54 24.22-18l4.76-.34 3.66-5.63a77.32 77.32 0 0 1 19-19c12.49-8.12 25.26-11.74 41.42-11.76h.14a69.09 69.09 0 0 1 23.41 3.47l5.65 1.81h32.09c17.22 0 33.5.24 35.55.51a22.06 22.06 0 0 1 12.06 5.45l3.7 3.42 13.39-13.7c6.79-7 15-15.38 18.16-18.68 6.52-6.74 9.31-8.84 13.57-10.25a20.74 20.74 0 0 1 6.37-.94 23 23 0 0 1 9.55 2 21.71 21.71 0 0 1 10.26 10.18c1.4 3 1.5 3.59 1.5 9.51 0 5.51-.17 6.68-1.22 8.95-1.72 3.67-54.42 66.89-58.75 70.46a53 53 0 0 1-26.4 11.36c-2.88.36-20.67.59-45.32.59h-15.38c-30.16 0-30.58.41-35.78 5.37-.38.37-.76.74-1.19 1.14l-4.9 4.53.24 5.15c.36 7.76.36 7.76-16.83 25.08-9.27 9.35-16 15.71-16.69 16.16a4.7 4.7 0 0 1-2.16.5zm-59.17-69.84 29.5 29.51c28.87 28.88 29.24 28.88 30 28.88s1.09 0 14-12.77l12.89-12.77v-6.44L161 315.21c-25.63-25.64-26.45-26.39-29.34-26.78l-3.2-.43zm98.08-63.63c-23.13 0-42.14 9.75-53.5 27.43l-3.46 5.37 47.34 47.34 5.1-4.66a39.16 39.16 0 0 1 12.25-7.69c1.29-.38 17-.69 46.64-.91 45.06-.34 45.53-.36 50-1.72a40.9 40.9 0 0 0 16.55-9.37c5.6-5.35 54.44-64.1 55.6-66.88a13.7 13.7 0 0 0 .76-6.16c-.32-4.38-2.6-7.82-6.78-10.21a12.06 12.06 0 0 0-6-1.52 12.57 12.57 0 0 0-6 1.5c-2.46 1.34-19 18.39-22.33 21.79-19.7 20.32-20.07 20.76-19.85 23.36.66 7.71-5.16 17.15-12.72 20.62-3.91 1.78-7.58 2.3-24.38 2.3h-10.36l-23.5-.23-1.25-1.39c-1.65-1.85-1.75-3.82-.27-5.53l.95-1.11 25.93-.29c26.46-.29 27-.29 29.72-1.77a13.09 13.09 0 0 0 0-23.25c-2.75-1.48-2.75-1.48-38.82-1.77l-35.43-.29-4.34-1.54c-7.07-2.53-12.77-3.42-21.76-3.42zM222 291a4.1 4.1 0 0 1-3-1.25 4.61 4.61 0 0 1-1.2-3.84 3.6 3.6 0 0 1 1.8-2.64 5.14 5.14 0 0 1 2.45-.67 4 4 0 0 1 3.46 1.92 4.55 4.55 0 0 1 0 4.53A3.83 3.83 0 0 1 222 291zm39-75.88a54.42 54.42 0 0 1-8-.5 73.19 73.19 0 0 1-18.25-5.83 63.75 63.75 0 0 1-32.7-40.4c-1.37-5.08-1.51-6.54-1.51-15.57s.14-10.48 1.51-15.56a69.91 69.91 0 0 1 10.54-21.69c9.5-12.65 23.91-21.57 38.55-23.97 2.13-.35 4.73-.79 5.33-.94a13.49 13.49 0 0 1 2.37-.11 120.11 120.11 0 0 1 16.43 1.23 63.18 63.18 0 0 1 47.73 45.6c1.31 4.88 1.46 6.46 1.46 15.4s-.14 10.48-1.5 15.57a63.42 63.42 0 0 1-17.3 29.32 60.39 60.39 0 0 1-27.88 15.75 76.47 76.47 0 0 1-16.78 1.66zm.6-115.82a49.35 49.35 0 0 0-8.83.69 54 54 0 0 0-42.89 63.87c3.6 17.42 16.47 32.74 32.8 39a55.1 55.1 0 0 0 19.81 3.73 54.11 54.11 0 0 0 39-16.74 53 53 0 0 0 14.59-39.45 53.57 53.57 0 0 0-40.12-49.58 61.22 61.22 0 0 0-14.35-1.56z" fill-rule="evenodd" fill="#363636"/>
            <path d="M257.61 123.13a30.6 30.6 0 0 0-21.91 17.46l-1 2.2h-3.56c-3.27 0-3.61 0-4.4.57a4.19 4.19 0 0 0-1.17 5.49c1 1.43 1.94 1.82 4.87 2l2.6.12v4.4l-2.6.12c-2.93.13-3.9.52-4.87 1.95a4.2 4.2 0 0 0 1.2 5.5c.76.52 1.1.56 4.37.56h3.56l1 2.21a30.44 30.44 0 0 0 6.37 9.14 30.08 30.08 0 0 0 16.22 8.46 26.83 26.83 0 0 0 6.28.28 25.65 25.65 0 0 0 8.53-1.39c4.09-1.25 10.35-5.25 11.27-7.2a3.94 3.94 0 0 0-5.78-5l-2.95 2a23.46 23.46 0 0 1-7.68 3.24 29.34 29.34 0 0 1-9 0 22.83 22.83 0 0 1-14.17-9.63 17.54 17.54 0 0 1-1.16-2c0-.08 4-.15 9-.15 8.51 0 9 0 9.79-.5a4.06 4.06 0 0 0-.19-6.92c-.84-.49-1.31-.52-11-.59l-10.1-.08v-4.77h10.23c9.76 0 10.26 0 11-.5a4.06 4.06 0 0 0-.19-6.92c-.83-.49-1.33-.52-9.72-.59l-8.84-.08.94-1.54a24.19 24.19 0 0 1 10.32-8.65 20.32 20.32 0 0 1 9.44-1.56c5 .17 7.9 1.14 12.27 4.13 1.69 1.15 2.15 1.35 3.14 1.35a3.8 3.8 0 0 0 4-3.88c0-1.71-.59-2.62-2.69-4.18a31.17 31.17 0 0 0-12.29-5.18 37.34 37.34 0 0 0-11.13.13z" fill="#ffffff"/>
            <path d="M294.45 443a57.61 57.61 0 0 0-48-48.22 97 97 0 0 0-13.25-.49c-14.43 1.52-26 6.91-35.76 16.66A56.72 56.72 0 0 0 181.22 443a75.11 75.11 0 0 0 0 16.69 57.64 57.64 0 0 0 48.27 48.27 73.93 73.93 0 0 0 16.69 0 57.64 57.64 0 0 0 48.27-48.27 75.92 75.92 0 0 0 0-16.69z" stroke="#00b771" stroke-miterlimit="10" stroke-width="8" fill="#ffffff" fill-rule="evenodd"/>
            <path d="M269.23 433.54a3.88 3.88 0 0 1-.85 2.95c-1 1.38-35.81 36.2-37.09 37.06a5.91 5.91 0 0 1-4.48.56c-.81-.26-3-2.27-10.24-9.5-6-5.94-9.4-9.56-9.73-10.25a4.79 4.79 0 0 1 .13-4.5 5.18 5.18 0 0 1 7.15-2.32c.44.23 3.88 3.46 7.63 7.19l6.82 6.78 16.22-16.2C255.13 435 261.35 429 261.94 428.7a5.43 5.43 0 0 1 6.49 1.94 3.83 3.83 0 0 1 .8 2.9z" fill="#00b771" fill-rule="evenodd"/>
        </g>
    </g>
</svg>
