<?xml version="1.0" encoding="UTF-8"?>
<svg data-bbox="2 2 28 28" viewBox="0 0 32 32" xmlns="http://www.w3.org/2000/svg" data-type="shape">
    <g>
        <path d="M26.57 20.82a1 1 0 1 0-1.14-1.64L17 25.08v-8.51l8-4.8V16a1 1 0 0 0 2 0v-6a.93.93 0 0 0 0-.29v-.07a.92.92 0 0 0-.13-.24l-.05-.07a.82.82 0 0 0-.25-.2l-10-5a1 1 0 0 0-.9 0l-6 3a1 1 0 1 0 .9 1.78L16 6.12l7.92 4L16 14.83 6.51 9.14A1 1 0 0 0 5 10v10a1 1 0 0 0 .43.82l10 7h.05l.06.05h.05a.89.89 0 0 0 .82 0h.05l.06-.05h.05zM7 11.77l8 4.8v8.51l-8-5.6z"/>
        <path d="M3 9a1 1 0 0 0 1-1V4h4a1 1 0 0 0 0-2H3a1 1 0 0 0-1 1v5a1 1 0 0 0 1 1z"/>
        <path d="M29 2h-5a1 1 0 0 0 0 2h4v4a1 1 0 0 0 2 0V3a1 1 0 0 0-1-1z"/>
        <path d="M29 23a1 1 0 0 0-1 1v4h-4a1 1 0 0 0 0 2h5a1 1 0 0 0 1-1v-5a1 1 0 0 0-1-1z"/>
        <path d="M8 28H4v-4a1 1 0 0 0-2 0v5a1 1 0 0 0 1 1h5a1 1 0 0 0 0-2z"/>
    </g>
</svg>
